#!OML:ASF F:\VICON\USERDATA\INSTALL\rory3\rory3.ASF
:FULLY-SPECIFIED
:DEGREES
99
root 0.48683922079326736 17.70002881355521 48.568254830899754 -2.2219329800660015 -0.19428557463928453 2.8399454032358986
lfemur 6.6412788403388205 -3.058742413045201 -27.590798598118006
ltibia 15.21982666136767
lfoot -19.166803904673543 1.7445325272994614
ltoes -2.5987965822214045
rfemur -31.00852031373779 2.3892413151536513 17.193115904227938
rtibia 28.78266963324583
rfoot -9.829134906423304 -16.82080907001344
rtoes -0.9015598773066538
lowerback 10.013499609309745 -0.8912230848341433 -4.067515829145656
upperback 0.5951016334545149 -1.584175777621173 0.908566487142731
thorax -4.818987289043797 -0.6806658155539708 3.555377511942204
lowerneck -16.028314031580692 -2.788370206684064 -3.550835473571975
upperneck 19.298534056398424 -3.4155518826449534 2.141138978823481
head 8.767136597410234 -1.6327067388372989 0.8802720674659055
lclavicle -1.125574814394581e-15 -9.375063774726652e-16
lhumerus -22.16665182952273 -3.852099450567013 79.50976973301559
lradius 25.821603000159072
lwrist 7.625694638725285
lhand -30.202989000079647 19.9929892676116
lfingers 7.125020000000056
lthumb -3.5132074410512324 49.96121033841286
rclavicle -1.125574814394581e-15 -9.375063774726652e-16
rhumerus -31.981978152245684 -17.197633358544614 -80.74462390833295
rradius 27.800648473077707
rwrist 2.692439702962961
rhand -17.0758688890897 30.4756215145224
rfingers 7.125020000000056
rthumb 9.162552489141923 -6.02861789757968
100
root 0.4525932937747241 17.632094815413605 48.36867067885991 -1.6505715983593974 0.34871273974729333 3.1361365694289804
lfemur 10.007091478564934 -3.314376695517005 -27.91567735851853
ltibia 11.498040504250216
lfoot -19.750797571156735 0.8422442697629586
ltoes -6.218851041018424
rfemur -31.00161019269327 4.445140922109786 15.93505064072476
rtibia 18.488843652714255
rfoot -9.974208341890376 -17.90897391122083
rtoes -3.0098979115106683
lowerback 9.66470062275538 -1.1642288665567513 -4.660861156394212
upperback 0.4874123000478862 -2.0068709504981648 0.943984710194025
thorax -4.759303393209068 -0.8748304895652294 3.914937405957769
lowerneck -16.22544663780382 -2.8209913593121105 -3.5651620643357185
upperneck 19.25194636022018 -3.4676285384739165 2.1368034118774224
head 8.790244637491046 -1.6499865898856299 0.8759074311768923
lclavicle -1.5267483287457178e-15 -1.2481361451926565e-15
lhumerus -20.768561685643537 -4.913014362651795 79.11696890376378
lradius 26.15047475619805
lwrist 7.887638581203168
lhand -30.55339781769814 19.645614142510027
lfingers 7.125020000000055
lthumb -3.8516160582586627 49.60724099598739
rclavicle -1.5267483287457178e-15 -1.2481361451926565e-15
rhumerus -33.177846073727906 -18.68634864302761 -80.10379255510462
rradius 25.51650333346754
rwrist 3.4971762642595676
rhand -17.121084388404558 30.39925902078008
rfingers 7.125020000000055
rthumb 9.118907609088279 -5.908191191887908
101
root 0.4224526941493824 17.570031390279254 48.68254133280143 -1.309329780661455 0.8041465739342868 3.2115997357826473
lfemur 13.119085762063843 -4.001336027879735 -27.944156649109967
ltibia 10.251017926707412
lfoot -19.49772253304381 -0.15276063328296807
ltoes -10.60445901602391
rfemur -30.81849275688751 5.401193051830409 15.697663009166
rtibia 14.312738632847335
rfoot -9.318946139279088 -16.918531957554798
rtoes -4.4843331708964325
lowerback 9.502989786592613 -1.343055651488863 -4.891694768283991
upperback 0.4125319315680909 -2.266941941222304 1.0633902264330122
thorax -4.728160844583926 -0.9954131770391849 4.2020042318483455
lowerneck -16.38047870018754 -2.8170729805231653 -3.5497992119927115
upperneck 19.38728856637847 -3.4500278072583135 2.076396564354002
head 8.866673650970679 -1.64530385853734 0.8523370139486198
lclavicle -1.5334452154165678e-15 -1.2533215339897458e-15
lhumerus -19.724438898239 -5.146423224770599 78.98114558314909
lradius 27.15165396764415
lwrist 8.264355838090138
lhand -31.08505615342317 18.919538495574894
lfingers 7.125020000000055
lthumb -4.365037733560653 48.87484985745343
rclavicle -1.5334452154165678e-15 -1.2533215339897458e-15
rhumerus -34.40314658918772 -20.411178629750474 -78.8286374269261
rradius 23.884041038616765
rwrist 5.018217043551256
rhand -17.205509692003222 30.305923198786434
rfingers 7.125020000000055
rthumb 9.03745525356225 -5.786695407447577
102
root 0.3845571560289389 17.5233533442431 49.29359561155416 -1.2622555769830925 1.0225328261985074 2.871204601531525
lfemur 15.261601602994602 -4.96511786541396 -27.61583832084239
ltibia 11.546230737586786
lfoot -17.922955643974305 -1.551031145639917
ltoes -15.374628472870011
rfemur -30.911620573817245 5.277451351317682 16.496554319682687
rtibia 15.304905380097807
rfoot -7.832088684066743 -14.424494194496326
rtoes -4.6334376714047965
lowerback 9.464639572164781 -1.4777421934976154 -4.748727597180168
upperback 0.36018093460738737 -2.424208973081665 1.293517054199349
thorax -4.75985289126238 -1.0713757177404823 4.365559271914738
lowerneck -16.47738108691776 -2.760693335298031 -3.524153058248385
upperneck 19.619114592069284 -3.3420807170276197 1.9126803171115103
head 8.96077090459255 -1.6093068179149126 0.8020514782409081
lclavicle -1.5664198162509117e-15 -1.2788538364785221e-15
lhumerus -19.34999136711724 -4.806010512320725 79.03888268509291
lradius 28.08818144028084
lwrist 8.525427972243373
lhand -31.752223259431553 17.932772627001395
lfingers 7.125020000000055
lthumb -5.009314206250081 47.881802488436115
rclavicle -1.5664198162509117e-15 -1.2788538364785221e-15
rhumerus -35.91367555016427 -22.62501649525142 -77.09458060189608
rradius 22.203844392109808
rwrist 7.104666646272471
rhand -17.320242718021696 30.191163810353466
rfingers 7.125020000000055
rthumb 8.926776049422974 -5.810186267953185
103
root 0.35646681139145486 17.514622257344644 50.59887262823153 -1.3785145568354271 1.0938197250987258 2.175204104189462
lfemur 16.471624521794272 -5.846023857797262 -26.670714736220468
ltibia 15.80339023907371
lfoot -14.065524461680786 -3.6048185723680004
ltoes -19.24327317576022
rfemur -30.62917281768629 4.757794851803675 18.192248330824714
rtibia 19.820824534619025
rfoot -5.64663635771339 -11.299996658801799
rtoes -2.629725619599915
lowerback 9.5191959554621 -1.5675137632085323 -4.1427168476719665
upperback 0.3238738624366447 -2.4657499114329737 1.6490403240247709
thorax -4.798341711735183 -1.0994960528345437 4.43722139317381
lowerneck -16.433943500595177 -2.623055831927867 -3.4808686882839504
upperneck 19.978045833958326 -3.1020336801701207 1.6776601318592739
head 9.06692074726855 -1.525003130528873 0.7378796833764016
lclavicle -1.2401015606470489e-15 -1.0261846588120003e-15
lhumerus -19.42806411082579 -3.939249178205886 79.43357920998176
lradius 29.64012118284746
lwrist 8.922815833822224
lhand -32.27289808415974 17.368635001657555
lfingers 7.125020000000056
lthumb -5.512129754193982 47.31215482616224
rclavicle -1.2401015606470489e-15 -1.0261846588120003e-15
rhumerus -37.42206167522909 -24.886665416090946 -74.74768279594399
rradius 21.28279337815966
rwrist 9.771837138743528
rhand -17.39609538401438 30.22119718293367
rfingers 7.125020000000056
rthumb 8.85361909104191 -5.839918555595108
104
root 0.32886163500498444 17.544226850095086 51.95563045571711 -1.6549655075896257 1.0117050104564824 1.0945974989354146
lfemur 15.996341883922405 -6.393824418892474 -25.096713020207822
ltibia 22.504932076054736
lfoot -7.76478785110397 -6.723615228248505
ltoes -20.98209632791231
rfemur -29.89640580700558 4.339122237428657 20.350006064054778
rtibia 25.14242669959998
rfoot -3.858876002195871 -8.560559475850729
rtoes 1.2465244992542908
lowerback 9.580318420614383 -1.6497758141273247 -3.196317183808077
upperback 0.2772801735234948 -2.453570748657912 2.0815206838495808
thorax -4.881358515591849 -1.107221900776925 4.364624818792713
lowerneck -16.242743273620015 -2.4419287977328263 -3.4350664466628817
upperneck 20.307926072747797 -2.7958822534873953 1.3723919105523614
head 9.129145943869865 -1.4172732793006886 0.6589933513647537
lclavicle -1.0035434118817499e-15 -8.430169921717679e-16
lhumerus -20.17838531708088 -2.902009237872919 79.97980233493782
lradius 30.82490600257413
lwrist 9.09200785196351
lhand -32.43505885405776 17.331347483374138
lfingers 7.125020000000057
lthumb -5.668737501284407 47.27094107161496
rclavicle -1.0035434118817499e-15 -8.430169921717679e-16
rhumerus -38.977719646882235 -27.203373702177966 -72.34740845803869
rradius 20.389131760564695
rwrist 12.30183087603169
rhand -17.431913014743945 30.25992940313589
rfingers 7.125020000000057
rthumb 8.819115640052754 -6.007118547027322
105
root 0.31018595505529245 17.615122129587775 53.44026219311316 -1.9669232249106225 0.9065815613041075 -0.1642414939176049
lfemur 13.997088532208842 -6.39522130490491 -22.930921718216812
ltibia 31.468281104823973
lfoot 0.38422303025003623 -10.422626322470386
ltoes -19.287435546711965
rfemur -28.16688029088462 4.365587406533269 22.695536923994407
rtibia 29.774297795661305
rfoot -2.915642052623175 -6.694166644938559
rtoes 6.02827860104427
lowerback 9.683798711116351 -1.6773127061554174 -1.99444977102288
upperback 0.22985714965131115 -2.338331304265166 2.5323878644025437
thorax -4.978159957279416 -1.070077167260607 4.185033375626978
lowerneck -15.90878383866979 -2.270847613392866 -3.3835860015750336
upperneck 20.606584700100356 -2.5145064199628306 1.1200190762389801
head 9.153650587716035 -1.3191638050460277 0.5950159521805876
lclavicle -5.707825051807952e-16 -5.079289869588561e-16
lhumerus -21.200421754318736 -1.946333445293027 80.73783026089191
lradius 32.100309893724145
lwrist 9.136522068374902
lhand -32.0876480945539 17.94177415305633
lfingers 7.125020000000058
lthumb -5.3332534008796495 47.880896545224
rclavicle -5.707825051807952e-16 -5.079289869588561e-16
rhumerus -40.08745474079647 -28.730913990064106 -70.36928050053474
rradius 20.36149774504861
rwrist 14.166634224193043
rhand -17.3912258485258 30.340961522924644
rfingers 7.125020000000058
rthumb 8.858439262185595 -6.075285759790631
